<?xml version="1.0" encoding="UTF-8"?>
<svg id="Ebene_2" data-name="Ebene 2" xmlns="http://www.w3.org/2000/svg" viewBox="0 0 158.52 25.66">
  <defs>
    <style>
      .cls-1 {
        fill: #fff;
      }
    </style>
  </defs>
  <g id="Ebene_1-2" data-name="Ebene 1">
    <g>
      <g>
        <path class="cls-1" d="M43.21,14.6c-.08,1.07-.47,1.91-1.19,2.53s-1.65.92-2.82.92c-1.28,0-2.28-.43-3.01-1.29s-1.1-2.04-1.1-3.54v-.61c0-.96.17-1.8.51-2.53s.82-1.29,1.45-1.68,1.35-.58,2.18-.58c1.15,0,2.07.31,2.78.92s1.11,1.48,1.22,2.59h-2.05c-.05-.64-.23-1.11-.54-1.4s-.78-.43-1.4-.43c-.68,0-1.2.25-1.53.73s-.51,1.25-.52,2.28v.75c0,1.08.16,1.86.49,2.36s.84.75,1.54.75c.63,0,1.11-.14,1.42-.43s.49-.74.54-1.34h2.05Z"/>
        <path class="cls-1" d="M48.71,17.92c-.09-.18-.16-.4-.2-.66-.48.53-1.1.8-1.87.8-.72,0-1.33-.21-1.8-.63s-.71-.95-.71-1.59c0-.78.29-1.39.87-1.8s1.42-.63,2.52-.64h.91v-.42c0-.34-.09-.62-.26-.82s-.45-.31-.83-.31c-.33,0-.59.08-.78.24s-.28.38-.28.66h-1.98c0-.43.13-.82.4-1.19s.64-.65,1.12-.86,1.03-.31,1.63-.31c.91,0,1.63.23,2.17.69s.8,1.1.8,1.93v3.21c0,.7.1,1.23.29,1.59v.12h-2ZM47.08,16.55c.29,0,.56-.06.81-.19s.43-.3.55-.52v-1.27h-.74c-.99,0-1.52.34-1.58,1.03v.12c0,.25.08.45.25.61s.41.24.71.24Z"/>
        <path class="cls-1" d="M54.02,17.92h-1.98V7.42h1.98v10.5Z"/>
        <path class="cls-1" d="M57.73,17.92h-1.98V7.42h1.98v10.5Z"/>
        <path class="cls-1" d="M59.34,8.61c0-.3.1-.54.3-.73s.47-.29.81-.29.61.1.81.29.3.44.3.73-.1.55-.3.74-.47.29-.8.29-.6-.1-.8-.29-.3-.44-.3-.74ZM61.44,17.92h-1.98v-7.4h1.98v7.4Z"/>
        <path class="cls-1" d="M62.76,14.15c0-.73.14-1.39.42-1.96s.69-1.02,1.22-1.33,1.15-.47,1.85-.47c1,0,1.81.31,2.44.92s.98,1.44,1.06,2.49v.51c.01,1.13-.3,2.04-.94,2.73s-1.48,1.03-2.55,1.03-1.92-.34-2.55-1.03-.95-1.61-.95-2.79v-.09ZM64.74,14.29c0,.7.13,1.24.4,1.61.26.37.64.56,1.13.56s.85-.18,1.12-.55c.27-.37.4-.96.4-1.76,0-.69-.13-1.22-.4-1.6s-.65-.57-1.13-.57-.86.19-1.12.56-.4.96-.4,1.75Z"/>
        <path class="cls-1" d="M77.64,14.29c0,1.14-.26,2.05-.78,2.74s-1.22,1.03-2.1,1.03c-.75,0-1.35-.26-1.81-.78v3.49h-1.98v-10.24h1.83l.07.72c.48-.57,1.1-.86,1.87-.86.91,0,1.62.34,2.13,1.01s.76,1.6.76,2.79v.1ZM75.67,14.15c0-.69-.12-1.22-.37-1.59s-.6-.56-1.06-.56c-.62,0-1.05.24-1.28.71v3.03c.24.49.67.73,1.29.73.94,0,1.42-.77,1.42-2.32Z"/>
        <path class="cls-1" d="M82.27,18.06c-1.08,0-1.97-.33-2.65-1s-1.02-1.55-1.02-2.66v-.19c0-.74.14-1.41.43-1.99s.69-1.04,1.22-1.35,1.13-.48,1.8-.48c1.01,0,1.81.32,2.39.96s.87,1.54.87,2.71v.81h-4.71c.06.48.26.87.58,1.16s.73.44,1.22.44c.76,0,1.36-.28,1.78-.83l.97,1.09c-.3.42-.7.75-1.2.98s-1.07.35-1.68.35ZM82.05,11.98c-.39,0-.71.13-.95.4s-.4.65-.47,1.14h2.75v-.16c0-.44-.13-.78-.36-1.02s-.55-.36-.97-.36Z"/>
        <path class="cls-1" d="M93.17,13.93l-1.07,1.15v2.84h-2.05V7.97h2.05v4.51l.9-1.24,2.54-3.27h2.52l-3.53,4.42,3.64,5.53h-2.44l-2.56-3.99Z"/>
        <path class="cls-1" d="M101.12,17.92h-2.05V7.97h2.05v9.95Z"/>
        <path class="cls-1" d="M106.73,14.45h-3.85v-1.59h3.85v1.59Z"/>
        <path class="cls-1" d="M115.94,9.63h-3.05v8.29h-2.05v-8.29h-3.01v-1.66h8.11v1.66Z"/>
        <path class="cls-1" d="M120.69,12.38c-.27-.04-.51-.05-.71-.05-.75,0-1.24.25-1.47.76v4.84h-1.98v-7.4h1.87l.05.88c.4-.68.95-1.02,1.65-1.02.22,0,.42.03.62.09l-.03,1.9Z"/>
        <path class="cls-1" d="M125.72,17.92c-.09-.18-.16-.4-.2-.66-.48.53-1.1.8-1.87.8-.72,0-1.33-.21-1.8-.63s-.71-.95-.71-1.59c0-.78.29-1.39.87-1.8s1.42-.63,2.52-.64h.91v-.42c0-.34-.09-.62-.26-.82s-.45-.31-.83-.31c-.33,0-.59.08-.78.24s-.28.38-.28.66h-1.98c0-.43.13-.82.4-1.19s.64-.65,1.12-.86,1.03-.31,1.63-.31c.91,0,1.63.23,2.17.69s.8,1.1.8,1.93v3.21c0,.7.1,1.23.29,1.59v.12h-2ZM124.09,16.55c.29,0,.56-.06.81-.19s.43-.3.55-.52v-1.27h-.74c-.99,0-1.52.34-1.58,1.03v.12c0,.25.08.45.25.61s.41.24.71.24Z"/>
        <path class="cls-1" d="M128.93,8.61c0-.3.1-.54.3-.73s.47-.29.81-.29.61.1.81.29.3.44.3.73-.1.55-.3.74-.47.29-.8.29-.6-.1-.8-.29-.3-.44-.3-.74ZM131.03,17.92h-1.98v-7.4h1.98v7.4Z"/>
        <path class="cls-1" d="M134.47,10.52l.06.85c.53-.66,1.24-.99,2.13-.99.78,0,1.37.23,1.75.69s.58,1.15.59,2.06v4.78h-1.98v-4.73c0-.42-.09-.72-.27-.91s-.49-.28-.91-.28c-.56,0-.97.24-1.25.71v5.22h-1.98v-7.4h1.86Z"/>
        <path class="cls-1" d="M140.48,8.61c0-.3.1-.54.3-.73s.47-.29.81-.29.61.1.81.29.3.44.3.73-.1.55-.3.74-.47.29-.8.29-.6-.1-.8-.29-.3-.44-.3-.74ZM142.58,17.92h-1.98v-7.4h1.98v7.4Z"/>
        <path class="cls-1" d="M146.02,10.52l.06.85c.53-.66,1.24-.99,2.13-.99.78,0,1.37.23,1.75.69s.58,1.15.59,2.06v4.78h-1.98v-4.73c0-.42-.09-.72-.27-.91s-.49-.28-.91-.28c-.56,0-.97.24-1.25.71v5.22h-1.98v-7.4h1.86Z"/>
        <path class="cls-1" d="M151.76,14.17c0-1.13.27-2.05.81-2.74s1.27-1.04,2.18-1.04c.81,0,1.44.28,1.89.83l.08-.7h1.79v7.15c0,.65-.15,1.21-.44,1.69s-.71.84-1.24,1.09-1.16.38-1.87.38c-.54,0-1.07-.11-1.59-.32s-.9-.5-1.17-.84l.88-1.2c.49.55,1.09.83,1.79.83.52,0,.93-.14,1.22-.42s.44-.68.44-1.19v-.4c-.46.52-1.06.77-1.8.77-.89,0-1.61-.35-2.16-1.04s-.82-1.62-.82-2.77v-.08ZM153.73,14.31c0,.67.13,1.2.4,1.58.27.38.64.57,1.11.57.6,0,1.03-.23,1.29-.68v-3.12c-.26-.45-.69-.68-1.28-.68-.47,0-.85.19-1.12.58-.27.39-.41.97-.41,1.74Z"/>
      </g>
      <g>
        <path class="cls-1" d="M24.84.52h-4.62c-.69,0-1.26.56-1.26,1.26,0,0,0,3.94,0,3.48,0-2.91-2.36-5.26-5.26-5.26s-5.26,2.36-5.26,5.26v5.78l-6.24,4.68c-4.21,3.21-1.94,9.93,3.36,9.93h1.25c.53-3.87,1.74-8.66,4.19-11.56h5.71c2.49,2.94,3.55,7.67,4.06,11.56h1.77c1.96,0,3.56-1.59,3.56-3.56V1.78c0-.69-.56-1.26-1.26-1.26M11.68,3.37h4.34v2.93c0,.95-.77,1.71-1.71,1.71h-.91c-.95,0-1.71-.77-1.71-1.71v-2.93ZM10.65,11.86l1.97-3.76,1.17,3.76h-3.14ZM13.89,11.86l1.18-3.79,1.96,3.79h-3.14ZM19.92,2.18h5.22v6.43h-5.22V2.18Z"/>
        <path class="cls-1" d="M18.05,25.66c-2.79-2-5.06-7.24-6.91-11.56v11.56h6.91Z"/>
      </g>
    </g>
  </g>
</svg>